<svg xmlns="http://www.w3.org/2000/svg" xmlns:xlink="http://www.w3.org/1999/xlink" width="90px" height="33px" viewBox="0 0 90 33" version="1.1">
    <!-- Generator: Sketch 51.3 (57544) - http://www.bohemiancoding.com/sketch -->
    <title>logo DDB</title>
    <desc>Created with Sketch.</desc>
    <defs/>
    <g id="Page-1" stroke="none" stroke-width="1" fill="none" fill-rule="evenodd">
        <g id="Modal" transform="translate(-52.000000, -46.000000)" fill="#000">
            <g id="logo-DDB" transform="translate(52.000000, 46.000000)">
                <path d="M39.7321715,27.2426825 L33.9368484,27.2426825 L33.9368484,9.19063669 L38.5745273,9.19063669 C45.0315304,9.19063669 47.0994286,12.8843468 47.0994286,18.6582481 C47.0994286,24.9991561 43.4968825,27.2426825 39.7321715,27.2426825 L39.7321715,27.2426825 Z M40.1878903,3.89449103 L27.4354571,3.89449103 L27.4354571,32.5382448 L40.1878903,32.5382448 C49.2134904,32.5382448 53.6049628,26.3612554 53.6049628,18.0591577 C53.6049628,8.55129583 47.8469258,3.89449103 40.1878903,3.89449103 L40.1878903,3.89449103 Z M68.3300075,27.6440205 L61.3746729,27.6440205 L61.3746729,19.7823447 L68.4566618,19.7823447 C71.2288527,19.7823447 73.1339941,20.940275 73.1339941,23.8698094 C73.1339941,26.8454278 70.9015637,27.6440205 68.3300075,27.6440205 L68.3300075,27.6440205 Z M61.3746729,8.79104866 L67.4635499,8.79104866 C69.7794301,8.79104866 71.9343291,9.35397195 71.9343291,12.0793374 C71.9343291,14.486199 70.2375163,15.4912942 67.9571466,15.4912942 L61.3746729,15.4912942 L61.3746729,8.79104866 Z M74.2105559,16.9718116 C76.7785611,15.7736308 78.2273918,13.8025243 78.2273918,10.9943246 C78.2273918,5.66434519 74.4188845,3.89449103 68.7880937,3.89449103 L54.8750571,3.89449103 L54.8750571,32.5382448 L69.200608,32.5382448 C74.5455388,32.5382448 79.6336099,30.0491322 79.6336099,24.2367304 C79.6336099,20.6655217 77.8113265,17.9786568 74.2105559,16.9718116 L74.2105559,16.9718116 Z M84.5492711,10.6537335 C81.7313671,10.6537335 79.4509189,8.44437588 79.4509189,5.7190429 C79.4509189,2.98191619 81.7313671,0.773541428 84.5492711,0.773541428 C87.3691694,0.773541428 89.6426377,2.98191619 89.6426377,5.7190429 C89.6426377,8.44437588 87.3691694,10.6537335 84.5492711,10.6537335 L84.5492711,10.6537335 Z M84.5480483,8.23042676 C83.1124343,8.23042676 81.9506335,7.10484387 81.9506335,5.71639131 C81.9506335,4.32193031 83.1124343,3.19684812 84.5480483,3.19684812 C85.9846782,3.19684812 87.1429231,4.32193031 87.1429231,5.71639131 C87.1429231,7.10484387 85.9846782,8.23042676 84.5480483,8.23042676 L84.5480483,8.23042676 Z M12.2967144,27.2426825 L6.49665658,27.2426825 L6.49665658,9.19063669 L11.1343355,9.19063669 C17.5937059,9.19063669 19.6639715,12.8843468 19.6639715,18.6582481 C19.6639715,24.9991561 16.0614254,27.2426825 12.2967144,27.2426825 L12.2967144,27.2426825 Z M12.7524332,3.89449103 L0,3.89449103 L0,32.5382448 L12.7524332,32.5382448 C21.775666,32.5382448 26.1653628,26.3612554 26.1653628,18.0591577 C26.1653628,8.55129583 20.4096932,3.89449103 12.7524332,3.89449103 L12.7524332,3.89449103 Z" id="Fill-1"/>
            </g>
        </g>
    </g>
</svg>