<svg xmlns="http://www.w3.org/2000/svg" viewBox="0 0 90.14 32.26"><defs><style>.cls-1{fill:none;stroke:#fff;stroke-miterlimit:10;stroke-width:0.5px;fill-rule:evenodd;}</style></defs><title>Recurso 2</title><g id="Capa_2" data-name="Capa 2"><g id="Capa_1-2" data-name="Capa 1"><g id="Page-1"><g id="Modal"><g id="logo-DDB"><path id="Fill-1" class="cls-1" d="M40,26.72H34.19v-18h4.63c6.46,0,8.53,3.69,8.53,9.46,0,6.35-3.6,8.59-7.37,8.59Zm.46-23.35H27.69V32H40.44c9,0,13.41-6.17,13.41-14.47C53.85,8,48.1,3.37,40.44,3.37ZM68.58,27.12h-7V19.26h7.09c2.77,0,4.67,1.16,4.67,4.09s-2.23,3.77-4.8,3.77Zm-7-18.85h6.09c2.32,0,4.47.56,4.47,3.29,0,2.4-1.69,3.41-4,3.41H61.62Zm12.84,8.18a6.28,6.28,0,0,0,4-6c0-5.33-3.81-7.1-9.44-7.1H55.13V32H69.45c5.35,0,10.43-2.48,10.43-8.3a7,7,0,0,0-5.42-7.26ZM84.8,10.13A5,5,0,0,1,79.7,5.2a5.1,5.1,0,0,1,10.19,0,5,5,0,0,1-5.09,4.93Zm0-2.42a2.56,2.56,0,0,1-2.6-2.52,2.6,2.6,0,0,1,5.19,0A2.56,2.56,0,0,1,84.8,7.71Zm-72.25,19H6.75v-18h4.63c6.46,0,8.53,3.69,8.53,9.46,0,6.35-3.6,8.59-7.36,8.59ZM13,3.37H.25V32H13c9,0,13.42-6.17,13.42-14.47C26.42,8,20.66,3.37,13,3.37Z"/></g></g></g></g></g></svg>