<svg xmlns="http://www.w3.org/2000/svg" viewBox="0 0 10.44 10.13"><defs><style>.cls-1{fill:none;stroke:#fff;stroke-miterlimit:10;stroke-width:0.25px;fill-rule:evenodd;}</style></defs><title>Recurso 1</title><g id="Capa_2" data-name="Capa 2"><g id="Capa_1-2" data-name="Capa 1"><path id="Fill-1" class="cls-1" d="M5.22,10A5,5,0,0,1,.12,5.07,5,5,0,0,1,5.22.12a5,5,0,0,1,5.1,5A5,5,0,0,1,5.22,10Zm0-2.43a2.56,2.56,0,0,1-2.6-2.51,2.56,2.56,0,0,1,2.6-2.52,2.55,2.55,0,0,1,2.6,2.52,2.55,2.55,0,0,1-2.6,2.51Z"/></g></g></svg>